<?xml version="1.0" encoding="utf-8"?>
<!-- Generator: Adobe Illustrator 16.0.0, SVG Export Plug-In . SVG Version: 6.00 Build 0)  -->
<!DOCTYPE svg PUBLIC "-//W3C//DTD SVG 1.1//EN" "http://www.w3.org/Graphics/SVG/1.1/DTD/svg11.dtd">
<svg version="1.1" id="Layer_1" xmlns="http://www.w3.org/2000/svg" xmlns:xlink="http://www.w3.org/1999/xlink" x="0px" y="0px"
	 width="10px" height="120px" viewBox="0 0 10 120" enable-background="new 0 0 10 120" xml:space="preserve" fill='rgba(255,255,255,0.2)'>
<path d="M8.316,59.895h0.012c-0.164,2.573-1.753,3.952-3.144,5.203c-1.467,1.244-2.715,2.344-2.718,4.544
	c-0.001,2.198,1.244,3.301,2.709,4.549c1.467,1.321,3.15,2.79,3.146,5.648C8.32,82.7,6.633,84.166,5.165,85.484
	c-1.468,1.244-2.716,2.343-2.718,4.543c-0.001,2.199,1.243,3.3,2.708,4.549c1.466,1.319,3.151,2.79,3.149,5.65
	c-0.005,2.933-1.692,4.396-3.159,5.642c-1.468,1.246-2.716,2.344-2.719,4.546c-0.001,2.198,1.244,3.301,2.711,4.547
	c1.36,1.229,2.912,2.584,3.122,5.063l-1.471-0.002c-0.203-1.818-1.351-2.831-2.68-3.962c-1.465-1.322-3.151-2.789-3.147-5.649
	c0.003-2.86,1.69-4.325,3.157-5.645c1.468-1.244,2.715-2.344,2.72-4.543c0.001-2.199-1.245-3.302-2.71-4.55
	c-1.465-1.32-3.15-2.79-3.148-5.648c0.002-2.861,1.69-4.325,3.158-5.643c1.467-1.247,2.715-2.345,2.716-4.546
	c0.003-2.199-1.242-3.301-2.708-4.549C2.683,73.968,0.997,72.5,1,69.642c0.003-2.861,1.69-4.326,3.158-5.646
	c1.368-1.158,2.543-2.19,2.7-4.102H6.845c-0.2-1.82-1.349-2.832-2.679-3.963C2.7,54.609,1.015,53.14,1.019,50.28
	c0.002-2.859,1.69-4.324,3.159-5.643c1.467-1.245,2.714-2.344,2.717-4.544c0.001-2.2-1.243-3.3-2.708-4.549
	c-1.465-1.321-3.151-2.789-3.148-5.649c0.004-2.86,1.692-4.324,3.158-5.643c1.469-1.245,2.715-2.344,2.718-4.544
	c0.001-2.2-1.244-3.301-2.709-4.55c-1.465-1.32-3.15-2.789-3.146-5.649c0.002-2.86,1.691-4.325,3.159-5.643
	c1.366-1.16,2.542-2.191,2.698-4.104l1.471,0.001C8.222,2.336,6.633,3.717,5.241,4.966C3.774,6.211,2.527,7.311,2.524,9.51
	c-0.002,2.2,1.243,3.302,2.708,4.55c1.466,1.321,3.15,2.789,3.148,5.649c-0.002,2.86-1.69,4.325-3.159,5.644
	c-1.467,1.245-2.715,2.344-2.717,4.543c-0.002,2.201,1.244,3.302,2.709,4.549c1.464,1.321,3.15,2.79,3.147,5.65
	c-0.003,2.934-1.69,4.397-3.158,5.642c-1.468,1.246-2.715,2.345-2.718,4.543c-0.002,2.201,1.244,3.302,2.709,4.551
	C6.556,56.058,8.107,57.414,8.316,59.895z"/>
</svg>
